<svg xmlns="http://www.w3.org/2000/svg" viewBox="0 0 248 248" width="248" height="248" role="img" aria-label="Decorative placeholder QR code">
  <title>Placeholder QR code</title>
  <rect width="248" height="248" fill="#fff"/>
  <g fill="#161823"><rect x="104" y="8" width="8" height="8"/><rect x="112" y="8" width="8" height="8"/><rect x="120" y="8" width="8" height="8"/><rect x="128" y="8" width="8" height="8"/><rect x="136" y="8" width="8" height="8"/><rect x="152" y="8" width="8" height="8"/><rect x="160" y="8" width="8" height="8"/><rect x="72" y="16" width="8" height="8"/><rect x="80" y="16" width="8" height="8"/><rect x="88" y="16" width="8" height="8"/><rect x="96" y="16" width="8" height="8"/><rect x="136" y="16" width="8" height="8"/><rect x="160" y="16" width="8" height="8"/><rect x="96" y="24" width="8" height="8"/><rect x="128" y="24" width="8" height="8"/><rect x="152" y="24" width="8" height="8"/><rect x="160" y="24" width="8" height="8"/><rect x="112" y="32" width="8" height="8"/><rect x="128" y="32" width="8" height="8"/><rect x="144" y="32" width="8" height="8"/><rect x="160" y="32" width="8" height="8"/><rect x="72" y="40" width="8" height="8"/><rect x="96" y="40" width="8" height="8"/><rect x="104" y="40" width="8" height="8"/><rect x="120" y="40" width="8" height="8"/><rect x="128" y="40" width="8" height="8"/><rect x="152" y="40" width="8" height="8"/><rect x="80" y="48" width="8" height="8"/><rect x="104" y="48" width="8" height="8"/><rect x="136" y="48" width="8" height="8"/><rect x="152" y="48" width="8" height="8"/><rect x="72" y="56" width="8" height="8"/><rect x="88" y="56" width="8" height="8"/><rect x="104" y="56" width="8" height="8"/><rect x="112" y="56" width="8" height="8"/><rect x="120" y="56" width="8" height="8"/><rect x="144" y="56" width="8" height="8"/><rect x="152" y="56" width="8" height="8"/><rect x="160" y="56" width="8" height="8"/><rect x="104" y="64" width="8" height="8"/><rect x="136" y="64" width="8" height="8"/><rect x="152" y="64" width="8" height="8"/><rect x="8" y="72" width="8" height="8"/><rect x="24" y="72" width="8" height="8"/><rect x="40" y="72" width="8" height="8"/><rect x="64" y="72" width="8" height="8"/><rect x="120" y="72" width="8" height="8"/><rect x="144" y="72" width="8" height="8"/><rect x="152" y="72" width="8" height="8"/><rect x="160" y="72" width="8" height="8"/><rect x="168" y="72" width="8" height="8"/><rect x="176" y="72" width="8" height="8"/><rect x="184" y="72" width="8" height="8"/><rect x="192" y="72" width="8" height="8"/><rect x="200" y="72" width="8" height="8"/><rect x="216" y="72" width="8" height="8"/><rect x="232" y="72" width="8" height="8"/><rect x="8" y="80" width="8" height="8"/><rect x="32" y="80" width="8" height="8"/><rect x="80" y="80" width="8" height="8"/><rect x="88" y="80" width="8" height="8"/><rect x="96" y="80" width="8" height="8"/><rect x="120" y="80" width="8" height="8"/><rect x="144" y="80" width="8" height="8"/><rect x="168" y="80" width="8" height="8"/><rect x="184" y="80" width="8" height="8"/><rect x="192" y="80" width="8" height="8"/><rect x="200" y="80" width="8" height="8"/><rect x="224" y="80" width="8" height="8"/><rect x="232" y="80" width="8" height="8"/><rect x="8" y="88" width="8" height="8"/><rect x="40" y="88" width="8" height="8"/><rect x="64" y="88" width="8" height="8"/><rect x="80" y="88" width="8" height="8"/><rect x="88" y="88" width="8" height="8"/><rect x="96" y="88" width="8" height="8"/><rect x="104" y="88" width="8" height="8"/><rect x="136" y="88" width="8" height="8"/><rect x="160" y="88" width="8" height="8"/><rect x="168" y="88" width="8" height="8"/><rect x="208" y="88" width="8" height="8"/><rect x="216" y="88" width="8" height="8"/><rect x="224" y="88" width="8" height="8"/><rect x="232" y="88" width="8" height="8"/><rect x="16" y="96" width="8" height="8"/><rect x="24" y="96" width="8" height="8"/><rect x="40" y="96" width="8" height="8"/><rect x="56" y="96" width="8" height="8"/><rect x="80" y="96" width="8" height="8"/><rect x="88" y="96" width="8" height="8"/><rect x="168" y="96" width="8" height="8"/><rect x="184" y="96" width="8" height="8"/><rect x="232" y="96" width="8" height="8"/><rect x="16" y="104" width="8" height="8"/><rect x="24" y="104" width="8" height="8"/><rect x="40" y="104" width="8" height="8"/><rect x="168" y="104" width="8" height="8"/><rect x="184" y="104" width="8" height="8"/><rect x="216" y="104" width="8" height="8"/><rect x="232" y="104" width="8" height="8"/><rect x="24" y="112" width="8" height="8"/><rect x="32" y="112" width="8" height="8"/><rect x="56" y="112" width="8" height="8"/><rect x="152" y="112" width="8" height="8"/><rect x="160" y="112" width="8" height="8"/><rect x="176" y="112" width="8" height="8"/><rect x="192" y="112" width="8" height="8"/><rect x="200" y="112" width="8" height="8"/><rect x="224" y="112" width="8" height="8"/><rect x="24" y="120" width="8" height="8"/><rect x="32" y="120" width="8" height="8"/><rect x="40" y="120" width="8" height="8"/><rect x="72" y="120" width="8" height="8"/><rect x="152" y="120" width="8" height="8"/><rect x="176" y="120" width="8" height="8"/><rect x="184" y="120" width="8" height="8"/><rect x="200" y="120" width="8" height="8"/><rect x="224" y="120" width="8" height="8"/><rect x="8" y="128" width="8" height="8"/><rect x="48" y="128" width="8" height="8"/><rect x="56" y="128" width="8" height="8"/><rect x="64" y="128" width="8" height="8"/><rect x="72" y="128" width="8" height="8"/><rect x="152" y="128" width="8" height="8"/><rect x="184" y="128" width="8" height="8"/><rect x="192" y="128" width="8" height="8"/><rect x="224" y="128" width="8" height="8"/><rect x="8" y="136" width="8" height="8"/><rect x="32" y="136" width="8" height="8"/><rect x="48" y="136" width="8" height="8"/><rect x="64" y="136" width="8" height="8"/><rect x="88" y="136" width="8" height="8"/><rect x="176" y="136" width="8" height="8"/><rect x="184" y="136" width="8" height="8"/><rect x="192" y="136" width="8" height="8"/><rect x="200" y="136" width="8" height="8"/><rect x="208" y="136" width="8" height="8"/><rect x="224" y="136" width="8" height="8"/><rect x="8" y="144" width="8" height="8"/><rect x="48" y="144" width="8" height="8"/><rect x="56" y="144" width="8" height="8"/><rect x="64" y="144" width="8" height="8"/><rect x="72" y="144" width="8" height="8"/><rect x="88" y="144" width="8" height="8"/><rect x="152" y="144" width="8" height="8"/><rect x="160" y="144" width="8" height="8"/><rect x="168" y="144" width="8" height="8"/><rect x="184" y="144" width="8" height="8"/><rect x="208" y="144" width="8" height="8"/><rect x="216" y="144" width="8" height="8"/><rect x="8" y="152" width="8" height="8"/><rect x="16" y="152" width="8" height="8"/><rect x="24" y="152" width="8" height="8"/><rect x="32" y="152" width="8" height="8"/><rect x="40" y="152" width="8" height="8"/><rect x="48" y="152" width="8" height="8"/><rect x="72" y="152" width="8" height="8"/><rect x="112" y="152" width="8" height="8"/><rect x="120" y="152" width="8" height="8"/><rect x="176" y="152" width="8" height="8"/><rect x="184" y="152" width="8" height="8"/><rect x="208" y="152" width="8" height="8"/><rect x="224" y="152" width="8" height="8"/><rect x="232" y="152" width="8" height="8"/><rect x="8" y="160" width="8" height="8"/><rect x="16" y="160" width="8" height="8"/><rect x="40" y="160" width="8" height="8"/><rect x="48" y="160" width="8" height="8"/><rect x="112" y="160" width="8" height="8"/><rect x="152" y="160" width="8" height="8"/><rect x="168" y="160" width="8" height="8"/><rect x="176" y="160" width="8" height="8"/><rect x="232" y="160" width="8" height="8"/><rect x="88" y="168" width="8" height="8"/><rect x="96" y="168" width="8" height="8"/><rect x="120" y="168" width="8" height="8"/><rect x="128" y="168" width="8" height="8"/><rect x="144" y="168" width="8" height="8"/><rect x="192" y="168" width="8" height="8"/><rect x="208" y="168" width="8" height="8"/><rect x="216" y="168" width="8" height="8"/><rect x="224" y="168" width="8" height="8"/><rect x="232" y="168" width="8" height="8"/><rect x="88" y="176" width="8" height="8"/><rect x="96" y="176" width="8" height="8"/><rect x="112" y="176" width="8" height="8"/><rect x="152" y="176" width="8" height="8"/><rect x="176" y="176" width="8" height="8"/><rect x="208" y="176" width="8" height="8"/><rect x="216" y="176" width="8" height="8"/><rect x="96" y="184" width="8" height="8"/><rect x="104" y="184" width="8" height="8"/><rect x="112" y="184" width="8" height="8"/><rect x="144" y="184" width="8" height="8"/><rect x="160" y="184" width="8" height="8"/><rect x="192" y="184" width="8" height="8"/><rect x="208" y="184" width="8" height="8"/><rect x="232" y="184" width="8" height="8"/><rect x="72" y="192" width="8" height="8"/><rect x="88" y="192" width="8" height="8"/><rect x="96" y="192" width="8" height="8"/><rect x="120" y="192" width="8" height="8"/><rect x="128" y="192" width="8" height="8"/><rect x="136" y="192" width="8" height="8"/><rect x="152" y="192" width="8" height="8"/><rect x="168" y="192" width="8" height="8"/><rect x="176" y="192" width="8" height="8"/><rect x="184" y="192" width="8" height="8"/><rect x="200" y="192" width="8" height="8"/><rect x="216" y="192" width="8" height="8"/><rect x="80" y="200" width="8" height="8"/><rect x="96" y="200" width="8" height="8"/><rect x="128" y="200" width="8" height="8"/><rect x="144" y="200" width="8" height="8"/><rect x="160" y="200" width="8" height="8"/><rect x="168" y="200" width="8" height="8"/><rect x="200" y="200" width="8" height="8"/><rect x="208" y="200" width="8" height="8"/><rect x="224" y="200" width="8" height="8"/><rect x="232" y="200" width="8" height="8"/><rect x="80" y="208" width="8" height="8"/><rect x="96" y="208" width="8" height="8"/><rect x="120" y="208" width="8" height="8"/><rect x="128" y="208" width="8" height="8"/><rect x="152" y="208" width="8" height="8"/><rect x="160" y="208" width="8" height="8"/><rect x="168" y="208" width="8" height="8"/><rect x="176" y="208" width="8" height="8"/><rect x="192" y="208" width="8" height="8"/><rect x="200" y="208" width="8" height="8"/><rect x="232" y="208" width="8" height="8"/><rect x="96" y="216" width="8" height="8"/><rect x="104" y="216" width="8" height="8"/><rect x="112" y="216" width="8" height="8"/><rect x="128" y="216" width="8" height="8"/><rect x="136" y="216" width="8" height="8"/><rect x="176" y="216" width="8" height="8"/><rect x="192" y="216" width="8" height="8"/><rect x="216" y="216" width="8" height="8"/><rect x="232" y="216" width="8" height="8"/><rect x="80" y="224" width="8" height="8"/><rect x="88" y="224" width="8" height="8"/><rect x="112" y="224" width="8" height="8"/><rect x="120" y="224" width="8" height="8"/><rect x="128" y="224" width="8" height="8"/><rect x="136" y="224" width="8" height="8"/><rect x="168" y="224" width="8" height="8"/><rect x="176" y="224" width="8" height="8"/><rect x="192" y="224" width="8" height="8"/><rect x="216" y="224" width="8" height="8"/><rect x="72" y="232" width="8" height="8"/><rect x="80" y="232" width="8" height="8"/><rect x="88" y="232" width="8" height="8"/><rect x="96" y="232" width="8" height="8"/><rect x="104" y="232" width="8" height="8"/><rect x="112" y="232" width="8" height="8"/><rect x="128" y="232" width="8" height="8"/><rect x="136" y="232" width="8" height="8"/><rect x="168" y="232" width="8" height="8"/><rect x="184" y="232" width="8" height="8"/><rect x="192" y="232" width="8" height="8"/><rect x="200" y="232" width="8" height="8"/><rect x="216" y="232" width="8" height="8"/><rect x="8" y="8" width="56" height="56" rx="10"/><rect x="16" y="16" width="40" height="40" rx="7" fill="#fff"/><rect x="24" y="24" width="24" height="24" rx="4"/><rect x="184" y="8" width="56" height="56" rx="10"/><rect x="192" y="16" width="40" height="40" rx="7" fill="#fff"/><rect x="200" y="24" width="24" height="24" rx="4"/><rect x="8" y="184" width="56" height="56" rx="10"/><rect x="16" y="192" width="40" height="40" rx="7" fill="#fff"/><rect x="24" y="200" width="24" height="24" rx="4"/></g>
</svg>
